USFL
nRows=129
nColumns=2
inDegrees=yes
endheader
time	med_gas_r	
3.1875	 54.099987	
3.25	 54.109363	
3.3125	 54.143925	
3.375	 54.065123	
3.4375	 54.039637	
3.5	 54.036169	
3.5625	 54.005000	
3.625	 53.982880	
3.6875	 53.987658	
3.75	 53.960604	
3.8125	 54.042754	
3.875	 54.032027	
3.9375	 54.025834	
4	 54.005370	
4.0625	 54.007985	
4.125	 53.961651	
4.1875	 53.996057	
4.25	 54.026026	
4.3125	 54.034204	
4.375	 53.982984	
4.4375	 53.982467	
4.5	 53.945835	
4.5625	 53.981024	
4.625	 53.948880	
4.6875	 54.011072	
4.75	 53.973398	
4.8125	 53.956952	
4.875	 53.920851	
4.9375	 53.911523	
5	 53.766440	
5.0625	 53.625720	
5.125	 53.685256	
5.1875	 53.689424	
5.25	 53.671852	
5.3125	 53.660822	
5.375	 53.574034	
5.4375	 53.604654	
5.5	 53.578538	
5.5625	 53.548511	
5.625	 53.299648	
5.6875	 53.254114	
5.75	 53.290393	
5.8125	 53.498638	
5.875	 53.559792	
5.9375	 53.816740	
6	 53.946907	
6.0625	 54.051766	
6.125	 53.661382	
6.1875	 52.815914	
6.25	 52.813539	
6.3125	 52.395767	
6.375	 50.211404	
6.4375	 49.999076	
6.5	 49.831598	
6.5625	 48.635616	
6.625	 48.445130	
6.6875	 47.377992	
6.75	 47.076857	
6.8125	 46.741862	
6.875	 48.157036	
6.9375	 47.958663	
7	 48.029880	
7.0625	 47.970256	
7.125	 48.023164	
7.1875	 48.087045	
7.25	 47.982032	
7.3125	 47.756609	
7.375	 47.735418	
7.4375	 47.531816	
7.5	 47.387564	
7.5625	 47.289606	
7.625	 47.065566	
7.6875	 46.902765	
7.75	 46.840843	
7.8125	 46.771789	
7.875	 46.778344	
7.9375	 46.501368	
8	 46.345882	
8.0625	 46.129818	
8.125	 46.078720	
8.1875	 44.587282	
8.25	 44.464217	
8.3125	 44.354053	
8.375	 44.502507	
8.4375	 44.559510	
8.5	 44.642228	
8.5625	 44.544650	
8.625	 44.496482	
8.6875	 44.596279	
8.75	 44.634745	
8.8125	 44.647962	
8.875	 44.565751	
8.9375	 44.589385	
9	 44.576850	
9.0625	 44.662670	
9.125	 44.695489	
9.1875	 44.673050	
9.25	 44.671745	
9.3125	 44.640631	
9.375	 44.594645	
9.4375	 44.675729	
9.5	 44.706885	
9.5625	 44.757299	
9.625	 44.744540	
9.6875	 44.638774	
9.75	 44.501959	
9.8125	 44.573041	
9.875	 44.628335	
9.9375	 44.576296	
10	 44.659302	
10.0625	 44.731770	
10.125	 44.799576	
10.1875	 44.839503	
10.25	 44.955274	
10.3125	 45.167816	
10.375	 45.133092	
10.4375	 44.933031	
10.5	 46.222995	
10.5625	 48.422549	
10.625	 51.800835	
10.6875	 53.672890	
10.75	 53.567173	
10.8125	 57.132674	
10.875	 57.212966	
10.9375	 56.985030	
11	 56.851778	
11.0625	 56.824565	
11.125	 56.752308	
11.1875	 56.895147	
